<?xml version="1.0" standalone="no"?>
<!DOCTYPE svg PUBLIC "-//W3C//DTD SVG 20010904//EN"
 "http://www.w3.org/TR/2001/REC-SVG-20010904/DTD/svg10.dtd">
<svg version="1.0" xmlns="http://www.w3.org/2000/svg"
 width="260.000000pt" height="260.000000pt" viewBox="0 0 260.000000 260.000000"
 preserveAspectRatio="xMidYMid meet">
<metadata>
Created by potrace 1.11, written by Peter Selinger 2001-2013
</metadata>
<g transform="translate(0.000000,260.000000) scale(0.100000,-0.100000)"
fill="#000000" stroke="none">
<path d="M1165 2593 c-218 -24 -438 -109 -623 -240 -128 -91 -285 -259 -352
-379 -136 -240 -189 -441 -185 -699 5 -260 78 -491 224 -710 41 -61 211 -244
267 -286 177 -134 356 -214 579 -260 108 -22 343 -19 469 5 384 74 716 320
902 666 29 53 74 154 79 175 1 5 5 17 8 25 14 33 47 179 55 245 12 85 8 313
-6 375 -6 25 -13 61 -16 80 -9 58 -62 203 -105 290 -66 130 -137 227 -245 336
-190 190 -410 307 -676 360 -69 14 -305 24 -375 17z"/>
</g>
</svg>
